<svg width="407" height="376" viewBox="0 0 407 376" fill="none" xmlns="http://www.w3.org/2000/svg">
<path d="M140.48 14.1377C144.528 -4.71259 171.424 -4.71255 175.472 14.1377L195.378 106.836C196.856 113.719 202.233 119.096 209.117 120.575L301.815 140.48C320.665 144.528 320.665 171.424 301.815 175.472L209.117 195.378C202.233 196.856 196.856 202.233 195.378 209.117L175.472 301.815C171.424 320.665 144.528 320.665 140.48 301.815L120.575 209.117C119.096 202.233 113.719 196.856 106.836 195.378L14.1377 175.472C-4.71259 171.424 -4.71255 144.528 14.1377 140.48L106.836 120.575C113.719 119.096 119.096 113.719 120.575 106.836L140.48 14.1377Z" fill="black"/>
<path d="M315.079 218.865C317.183 209.067 331.164 209.067 333.268 218.865L343.615 267.05C344.383 270.628 347.178 273.423 350.756 274.191L398.941 284.538C408.739 286.643 408.739 300.623 398.941 302.727L350.756 313.074C347.178 313.843 344.383 316.638 343.615 320.216L333.268 368.4C331.164 378.199 317.183 378.199 315.079 368.4L304.732 320.216C303.964 316.638 301.168 313.843 297.59 313.074L249.406 302.727C239.607 300.623 239.607 286.643 249.406 284.538L297.59 274.191C301.168 273.423 303.964 270.628 304.732 267.05L315.079 218.865Z" fill="black"/>
</svg>
